<svg xmlns="http://www.w3.org/2000/svg" xmlns:xlink="http://www.w3.org/1999/xlink" width="25" height="25" viewBox="0 0 25 25">
  <defs>
    <rect id="rect-1" width="25" height="25" x="0" y="0"/>
    <mask id="mask-2" maskContentUnits="userSpaceOnUse" maskUnits="userSpaceOnUse">
      <rect width="25" height="25" x="0" y="0" fill="black"/>
      <use fill="white" xlink:href="#rect-1"/>
    </mask>
  </defs>
  <g>
    <use fill="none" xlink:href="#rect-1"/>
    <g mask="url(#mask-2)">
      <path fill="none" stroke="rgb(255,255,255)" stroke-dasharray="0 0 0 0" stroke-linecap="butt" stroke-linejoin="miter" stroke-width="1" d="M22.91666667 12.99991667c0 4.60666666-2.97458334 8.51416666-7.10083334 9.8975-.52791666.10208333-.71416666-.22291667-.71416666-.50208334 0-.34208333.01291666-1.46791666.01291666-2.86208333 0-.97416667-.33333333-1.61041667-.70583333-1.93083333 2.31416667-.26 4.74541667-1.14083334 4.74541667-5.14791667 0-1.13875-.4025-2.07208333-1.06958334-2.80125.10833334-.26416667.46333334-1.32291667-.10375-2.76041667 0 0-.87041666-.27916666-2.85333333 1.06958334-.82916667-.23166667-1.71875-.34666667-2.60208333-.35083334C11.64208333 7.61575 10.7525 7.73075 9.92333333 7.96241667c-1.98291666-1.34875-2.8575-1.06958334-2.8575-1.06958334-.565 1.4375-.20791666 2.49625-.09958333 2.76041667-.66708333.72916667-1.07166667 1.6625-1.07166667 2.80125 0 3.99625 2.42666667 4.8925 4.73458334 5.15416667-.29666667.26208333-.565.72125-.66041667 1.39416666-.59333333.26875-2.09791667.72958334-3.02416667-.86583333 0 0-.55-1-1.59125-1.07375 0 0-1.01541666-.01291667-.07166666.63416667 0 0 .68208333.32041666 1.15416666 1.52416666 0 0 .60833334 2.03083334 3.50041667 1.39875.00416667.87208334.01291667 1.52833334.01291667 1.775 0 .27708334-.18833334.5975-.70791667.50208334-4.13041667-1.37875-7.10708333-5.28875-7.10708333-9.8975 0-5.76291667 4.65208333-10.4325 10.39125-10.4325 5.73916666 0 10.39125 4.66958333 10.39125 10.4325h0z"/>
      <path fill="none" stroke="rgb(255,255,255)" stroke-dasharray="0 0 0 0" stroke-linecap="butt" stroke-linejoin="round" stroke-width="1" d="M22.91666667 24.58333333H2.08333333c-.92041666 0-1.66666666-.74625-1.66666666-1.66666666V2.08333333c0-.92041666.74625-1.66666666 1.66666666-1.66666666h20.83333334c.92041666 0 1.66666666.74625 1.66666666 1.66666666v20.83333334c0 .92041666-.74625 1.66666666-1.66666666 1.66666666h0z"/>
    </g>
  </g>
</svg>
