<svg xmlns="http://www.w3.org/2000/svg" xmlns:xlink="http://www.w3.org/1999/xlink" width="25" height="25.049" viewBox="0 0 25 25.049">
  <defs>
    <rect id="rect-1" width="25" height="25.049" x="0" y="0"/>
    <mask id="mask-2" maskContentUnits="userSpaceOnUse" maskUnits="userSpaceOnUse">
      <rect width="25" height="25.049" x="0" y="0" fill="black"/>
      <use fill="white" xlink:href="#rect-1"/>
    </mask>
  </defs>
  <g>
    <use fill="none" xlink:href="#rect-1"/>
    <g mask="url(#mask-2)">
      <path fill="rgb(255,255,255)" fill-rule="evenodd" d="M12.50708008 4.1747551c-4.60375977 0-8.3494873 3.74591064-8.3494873 8.34970474s3.74572753 8.34970474 8.3494873 8.34970474c4.60375976 0 8.34973144-3.74591064 8.34973144-8.34970474S17.11083984 4.1747551 12.50708008 4.1747551zm0 15.1338539c-3.74047852 0-6.78393555-3.04358672-6.78393555-6.78414916 0-3.74055863 3.04345703-6.78414536 6.78393555-6.78414536 3.74072265 0 6.78417969 3.04358673 6.78417969 6.78414536 0 3.74056244-3.04345704 6.78414917-6.7841797 6.78414917z"/>
      <path fill="rgb(255,255,255)" fill-rule="evenodd" d="M11.72424316.7827797v1.82641982c0 .43209458.35070801.78277779.78283692.78277779.43200683 0 .78271484-.35068321.78271484-.78277779V.7827797C13.28979492.35068321 12.93908692 0 12.50708008 0c-.4321289 0-.78283692.35068321-.78283692.7827797z"/>
      <path fill="rgb(255,255,255)" fill-rule="evenodd" d="M2.7265625 6.08583832c-.38415527-.19722367-.85583496-.03955841-1.05212402.3443756-.19506836.38623048-.04064942.85692979.34558105 1.05205155l1.54663086.7827797c.1138916.0584793.23486328.08465957.3527832.08465957.28613282 0 .56164551-.15670776.69921875-.429039.1953125-.38622665.04077149-.85692596-.34533691-1.05204773l-1.54675293-.7827797z"/>
      <path fill="rgb(255,255,255)" fill-rule="evenodd" d="M2.0209961 17.56665802l1.546875-.78277588c.38500976-.19837189.85571288-.04070663 1.05200195.34437561.19506836.38623047.04064941.85692978-.34558106 1.05205155l-1.54663086.78277587c-.1138916.05847931-.23388672.08447266-.3527832.08447266-.28601074 0-.5616455-.15652084-.6994629-.42884827-.19506835-.38623046-.0406494-.85692977.34558106-1.05205154z"/>
      <path fill="rgb(255,255,255)" fill-rule="evenodd" d="M12.50707094 21.6569457c-.4320954 0-.78277887.35068346-.78277887.78277886v1.82642025c0 .4320954.35068347.78277887.78277887.78277887s.78277886-.35068346.78277886-.78277887v-1.82642025c0-.4320954-.35068346-.78277887-.78277886-.78277887z"/>
      <path fill="rgb(255,255,255)" fill-rule="evenodd" d="M21.44750977 16.78387833l1.54675293.78277969c.38513183.19512177.5406494.66582108.3453369 1.05204773-.1376953.27233124-.41308593.42884827-.69921874.42884827-.11889649 0-.23999024-.02598954-.3527832-.08446885l-1.54663086-.78277969c-.38623047-.19512176-.54064942-.66582107-.34558106-1.05205154.19628906-.38508225.66699219-.54159928 1.05212403-.34437561z"/>
      <path fill="rgb(255,255,255)" fill-rule="evenodd" d="M20.7409668 6.8686142l1.54663086-.78277588c.38623047-.19837189.85693359-.04070664 1.05200195.3443756.1953125.38623048.04077148.85692979-.34533691 1.05205155l-1.54675293.78277588c-.11376954.05847931-.23376465.0846634-.3527832.0846634-.28588868 0-.56152344-.15671159-.69934083-.429039-.19506836-.38623048-.04064941-.85692979.34558106-1.05205155z"/>
    </g>
  </g>
</svg>
