<svg xmlns="http://www.w3.org/2000/svg" width="25" height="25" viewBox="0 0 25 25">
  <g>
    <path fill="rgb(255,255,255)" fill-rule="evenodd" d="M4.4623146 6.02050781c0-1.21057129.91142083-2.12213135 2.23324013-2.12213135 1.32806969 0 2.18532563.91992188 2.21240807 2.11798096 0 1.18762207-.88850403 2.12835694-2.25094795 2.12835694-1.31452942 0-2.19470024-.94592286-2.19470024-2.12420655zm2.23324013-1.34075927c.89788056 0 1.41348267.57507324 1.4311905 1.3460083 0 .73657226-.52810288 1.33764648-1.45827294 1.33764648-.893713 0-1.4249401-.59692383-1.4249401-1.34283447 0-.75848389.54060172-1.34082031 1.45202254-1.34082031zm-2.0415821 4.44329833V19.1513672c0 .2156372.17499351.39068603.39060783.39068603h3.2581997c.2145729 0 .39060783-.17504883.39060783-.39068603V9.12304688c0-.21459961-.17603493-.39068604-.39060784-.39068604H5.04458046c-.21561432 0-.39060783.17608643-.39060783.39068603zm3.25819778.390625v9.24700928h-2.4769802V9.51367188h2.4769802z"/>
    <path fill="rgb(255,255,255)" fill-rule="evenodd" d="M10.1579094 9.23236084c.04037475.88946533.00249862 9.35986328 0 9.91900635-.00104142.2156372.1739521.3916626.39060973.3916626h3.32798577c.21457481 0 .39060783-.1749878.39060783-.390625v-5.54968262c0-.2947998.0239582-.52087403.08020592-.65631104.20207405-.50213623.63747406-.96679687 1.34577751-.96679687.92391968 0 1.29473877.65112304 1.29473877 1.85644531v5.31634522c0 .2156372.1749916.390625.39060783.390625h3.32902718c.2145729 0 .39060974-.1749878.39060974-.390625v-5.69970704c0-3.23895263-1.79367447-4.86309814-4.22169876-4.86309814-1.10932922 0-1.883255.35211182-2.43323326.79699707l-.17603493.15625v-.32922363c0-.21459961-.17603302-.39068604-.39060783-.39068604h-3.32798577c-.22290802 0-.40102577.18652344-.39060974.40942383zm3.32798766 4.37036133v5.15899658h-2.54676818l.0010414-.19793701c.00833321-1.79711914.02916528-7.1706543.0072918-8.90216065l-.00104141-.057312h2.5394764v.92095946l-.0229149.09588624c-.01770782.2125244.14582635.42401123.39581681.42401123.17811775 0 .31769562-.09796143.37810898-.24591065l.31977844-.43859863.36977577-.3604126c.42810822-.34899902 1.03745842-.62927246 1.94991875-.62927246 1.9530449 0 3.4404831 1.2241211 3.4404831 4.0817871v5.30895997H17.7690525v-4.92559814c0-1.40435791-.54685212-2.63781739-2.07595444-2.63781739-1.12807846 0-1.79263497.76361084-2.06762314 1.45123291-.12082863.28753662-.13957787.65527344-.13957787.95318604z"/>
    <path fill="rgb(255,255,255)" fill-rule="evenodd" d="M0 2.28363037v20.43273926C0 23.9769287 1.02287388 25 2.28323746 25h20.43352508C23.97608566 25 25 23.97692871 25 22.71636963V2.28363037C25 1.0241089 23.97608566 0 22.71676254 0H2.28323746C1.02287388 0 0 1.02410889 0 2.28363037zm24.21878052 0v20.4328003c0 .82818603-.67496872 1.5022583-1.50201798 1.5022583H2.28323746c-.82808972 0-1.50201988-.67407227-1.50201988-1.5022583V2.28363036c0-.82714844.67393016-1.5022583 1.50201988-1.5022583h20.43352508c.82704926 0 1.50201798.67510986 1.50201798 1.5022583z"/>
  </g>
</svg>
